<svg xmlns="http://www.w3.org/2000/svg" xmlns:xlink="http://www.w3.org/1999/xlink" width="775" height="479" viewBox="0 0 775 479">
  <defs>
    <radialGradient id="radial-gradient" cx="0.5" cy="0.5" r="0.478" gradientTransform="translate(-0.049) scale(1.098 1)" gradientUnits="objectBoundingBox">
      <stop offset="0" stop-color="#fec4ad"/>
      <stop offset="1" stop-color="#ffbb9c"/>
    </radialGradient>
    <linearGradient id="linear-gradient" y1="0.5" x2="1" y2="0.5" gradientUnits="objectBoundingBox">
      <stop offset="0" stop-color="#fff" stop-opacity="0"/>
      <stop offset="1" stop-color="#fff" stop-opacity="0.502"/>
    </linearGradient>
    <clipPath id="clip-slide-2">
      <rect width="775" height="479"/>
    </clipPath>
  </defs>
  <g id="slide-2" clip-path="url(#clip-slide-2)">
    <g id="Group_4359" data-name="Group 4359">
      <ellipse id="Ellipse_154" data-name="Ellipse 154" cx="387.5" cy="22.435" rx="387.5" ry="22.435" transform="translate(0 433.973)" fill="#eff1f5"/>
      <g id="Group_4358" data-name="Group 4358" transform="translate(6163 -1992)">
        <g id="Group_4357" data-name="Group 4357" transform="translate(-6090.091 1992.001)">
          <g id="Group_4351" data-name="Group 4351" transform="translate(0 0)">
            <g id="Group_4316" data-name="Group 4316" transform="translate(23.149 22.723)">
              <g id="Group_4279" data-name="Group 4279">
                <rect id="Rectangle_1975" data-name="Rectangle 1975" width="115.821" height="108.054" fill="#949eb2"/>
              </g>
              <g id="Group_4280" data-name="Group 4280" style="mix-blend-mode: screen;isolation: isolate">
                <rect id="Rectangle_1976" data-name="Rectangle 1976" width="115.821" height="11.428" fill="#1d262d"/>
              </g>
              <g id="Group_4284" data-name="Group 4284" transform="translate(86.594 3.749)">
                <g id="Group_4281" data-name="Group 4281">
                  <path id="Path_7961" data-name="Path 7961" d="M197.36,104.372a2.1,2.1,0,1,1-2.1-2.095A2.1,2.1,0,0,1,197.36,104.372Z" transform="translate(-193.168 -102.277)" fill="#fff"/>
                </g>
                <g id="Group_4282" data-name="Group 4282" transform="translate(8.751)">
                  <path id="Path_7962" data-name="Path 7962" d="M204.73,104.372a2.1,2.1,0,1,1-2.1-2.095A2.095,2.095,0,0,1,204.73,104.372Z" transform="translate(-200.539 -102.277)" fill="#f7ea48"/>
                </g>
                <g id="Group_4283" data-name="Group 4283" transform="translate(16.877 0.221)">
                  <path id="Path_7963" data-name="Path 7963" d="M211.574,104.558a2.1,2.1,0,1,1-2.1-2.095A2.095,2.095,0,0,1,211.574,104.558Z" transform="translate(-207.383 -102.463)" fill="#ff5a5a"/>
                </g>
              </g>
              <g id="Group_4308" data-name="Group 4308" transform="translate(20.594 22.051)">
                <rect id="Rectangle_1977" data-name="Rectangle 1977" width="16.404" height="1.378" fill="#ecedf1"/>
                <rect id="Rectangle_1978" data-name="Rectangle 1978" width="16.404" height="1.378" transform="translate(19.254)" fill="#ecedf1"/>
                <rect id="Rectangle_1979" data-name="Rectangle 1979" width="25.438" height="1.378" transform="translate(5.074 7.424)" fill="#ecedf1"/>
                <rect id="Rectangle_1980" data-name="Rectangle 1980" width="12.93" height="1.378" transform="translate(34.718 7.424)" fill="#ecedf1"/>
                <rect id="Rectangle_1981" data-name="Rectangle 1981" width="11.172" height="1.378" transform="translate(13.898 14.847)" fill="#ecedf1"/>
                <rect id="Rectangle_1982" data-name="Rectangle 1982" width="37.063" height="1.378" transform="translate(31.527 14.847)" fill="#ecedf1"/>
                <rect id="Rectangle_1983" data-name="Rectangle 1983" width="42.357" height="1.378" transform="translate(22.576 22.271)" fill="#ecedf1"/>
                <rect id="Rectangle_1984" data-name="Rectangle 1984" width="13.036" height="1.378" transform="translate(11.985 29.695)" fill="#ecedf1"/>
                <rect id="Rectangle_1985" data-name="Rectangle 1985" width="13.036" height="1.378" transform="translate(30.599 29.695)" fill="#ecedf1"/>
                <rect id="Rectangle_1986" data-name="Rectangle 1986" width="18.964" height="1.378" transform="translate(0 68.21)" fill="#ecedf1"/>
                <rect id="Rectangle_1987" data-name="Rectangle 1987" width="18.965" height="1.378" transform="translate(25.606 68.21)" fill="#ecedf1"/>
                <rect id="Rectangle_1988" data-name="Rectangle 1988" width="18.964" height="1.378" transform="translate(50.523 68.21)" fill="#ecedf1"/>
                <rect id="Rectangle_1989" data-name="Rectangle 1989" width="37.063" height="1.378" transform="translate(5.074 60.786)" fill="#ecedf1"/>
                <rect id="Rectangle_1990" data-name="Rectangle 1990" width="37.063" height="1.378" transform="translate(47.915 60.786)" fill="#ecedf1"/>
                <rect id="Rectangle_1991" data-name="Rectangle 1991" width="36.778" height="1.378" transform="translate(13.898 53.363)" fill="#ecedf1"/>
                <rect id="Rectangle_1992" data-name="Rectangle 1992" width="10.237" height="1.378" transform="translate(53.883 53.363)" fill="#ecedf1"/>
                <rect id="Rectangle_1993" data-name="Rectangle 1993" width="13.845" height="1.378" transform="translate(11.496 45.939)" fill="#ecedf1"/>
                <rect id="Rectangle_1994" data-name="Rectangle 1994" width="13.845" height="1.378" transform="translate(32.695 45.939)" fill="#ecedf1"/>
                <rect id="Rectangle_1995" data-name="Rectangle 1995" width="13.845" height="1.378" transform="translate(55.445 45.939)" fill="#ecedf1"/>
                <rect id="Rectangle_1996" data-name="Rectangle 1996" width="19.414" height="1.378" transform="translate(27.546 38.515)" fill="#ecedf1"/>
                <rect id="Rectangle_1997" data-name="Rectangle 1997" width="19.414" height="1.378" transform="translate(0.807 38.515)" fill="#ecedf1"/>
              </g>
              <g id="Group_4315" data-name="Group 4315" transform="translate(9.858 20.727)">
                <g id="Group_4310" data-name="Group 4310" transform="translate(0)">
                  <g id="Group_4309" data-name="Group 4309">
                    <rect id="Rectangle_1998" data-name="Rectangle 1998" width="1.765" height="1.764" fill="#f9fbfc"/>
                  </g>
                </g>
                <g id="Group_4312" data-name="Group 4312" transform="translate(0 7.161)">
                  <g id="Group_4311" data-name="Group 4311">
                    <path id="Path_7964" data-name="Path 7964" d="M130.3,180.182h-1.765v-3.6H130.3Zm0-8.994h-1.765v-3.6H130.3Zm0-9h-1.765v-3.6H130.3Zm0-8.994h-1.765v-3.6H130.3Zm0-8.994h-1.765v-3.6H130.3Zm0-8.994h-1.765v-3.6H130.3Zm0-9h-1.765v-3.6H130.3Z" transform="translate(-128.535 -122.619)" fill="#f9fbfc"/>
                  </g>
                </g>
                <g id="Group_4314" data-name="Group 4314" transform="translate(0 70.121)">
                  <g id="Group_4313" data-name="Group 4313">
                    <rect id="Rectangle_1999" data-name="Rectangle 1999" width="1.765" height="1.764" fill="#f9fbfc"/>
                  </g>
                </g>
              </g>
            </g>
            <g id="Group_4319" data-name="Group 4319" transform="translate(213.731 0)">
              <g id="Group_4317" data-name="Group 4317" transform="translate(0)" style="isolation: isolate">
                <rect id="Rectangle_2000" data-name="Rectangle 2000" width="55.93" height="55.904" transform="translate(0 0)" fill="#0097a7"/>
              </g>
              <g id="Group_4318" data-name="Group 4318" transform="translate(10.772 17.23)">
                <path id="Path_7965" data-name="Path 7965" d="M267.437,99.124l-7.649,3.263,7.649,3.215-1,2.31-9.173-4.1v-2.834l9.173-4.121Z" transform="translate(-257.262 -90.98)" fill="#f9fbfc"/>
                <path id="Path_7966" data-name="Path 7966" d="M282.014,90.1l-5.551,21.315-2.645-.619,5.576-21.291Z" transform="translate(-260.568 -89.509)" fill="#f9fbfc"/>
                <path id="Path_7967" data-name="Path 7967" d="M298.108,100.983v2.834l-9.174,4.1-1-2.31,7.625-3.215-7.625-3.263,1-2.262Z" transform="translate(-263.387 -90.98)" fill="#f9fbfc"/>
              </g>
            </g>
            <g id="Group_4322" data-name="Group 4322" transform="translate(476.4 79.862)">
              <g id="Group_4320" data-name="Group 4320" transform="translate(0 0)" style="isolation: isolate">
                <rect id="Rectangle_2001" data-name="Rectangle 2001" width="45.942" height="45.921" fill="#4a88e9"/>
              </g>
              <g id="Group_4321" data-name="Group 4321" transform="translate(12.691 11.314)">
                <path id="Path_7968" data-name="Path 7968" d="M335.608,182.778c-1.5,0-2,.4-2,1.523v5c0,1.952-.81,2.547-2.167,2.928,1.357.357,2.167.952,2.167,2.879v5c0,1.119.524,1.523,2,1.523v2.19c-3.786,0-4.858-1.214-4.858-3.737v-4.737c0-1.357-.357-1.881-1.6-1.881v-2.5c1.238,0,1.6-.547,1.6-1.9v-4.736c0-2.547,1.072-3.737,4.858-3.737Z" transform="translate(-329.155 -180.588)" fill="#f1f2f2"/>
                <path id="Path_7969" data-name="Path 7969" d="M347.82,184.325v4.736c0,1.357.357,1.9,1.62,1.9v2.5c-1.263,0-1.62.524-1.62,1.881v4.737c0,2.523-1.071,3.737-4.858,3.737v-2.19c1.477,0,2-.4,2-1.523v-5c0-1.928.809-2.523,2.167-2.879-1.358-.381-2.167-.976-2.167-2.928v-5c0-1.119-.5-1.523-2-1.523v-2.189C346.749,180.588,347.82,181.778,347.82,184.325Z" transform="translate(-328.888 -180.588)" fill="#f1f2f2"/>
              </g>
            </g>
            <g id="Group_4326" data-name="Group 4326" transform="translate(0 0)">
              <g id="Group_4323" data-name="Group 4323" style="isolation: isolate">
                <rect id="Rectangle_2002" data-name="Rectangle 2002" width="45.942" height="45.921" fill="#b56183"/>
              </g>
              <g id="Group_4325" data-name="Group 4325" transform="translate(12.926 12.919)">
                <g id="Group_4324" data-name="Group 4324">
                  <path id="Path_7970" data-name="Path 7970" d="M106.111,96.625a8.145,8.145,0,0,0,10.9,11.838l5.21,5.208a.565.565,0,0,0,.8,0l1.463-1.463a.561.561,0,0,0,0-.8l-5.21-5.208a8.146,8.146,0,0,0-13.162-9.579Zm10.457,9.134a5.759,5.759,0,1,1,0-8.143A5.769,5.769,0,0,1,116.568,105.759Z" transform="translate(-104.357 -93.548)" fill="#f9fbfc"/>
                </g>
              </g>
            </g>
            <g id="Group_4350" data-name="Group 4350" transform="translate(106.091 53.842)">
              <path id="Path_7971" data-name="Path 7971" d="M301.773,199.737C301.607,201.421,299.3,219,281.219,219c-18.985,0-15.8-18.788-15.8-18.788l-.024-.117a18.935,18.935,0,0,1,5.956-.285v-8.9l21.549-12.05h.783v20.757A39.183,39.183,0,0,1,301.773,199.737Z" transform="translate(-3.958 -121.531)" fill="url(#radial-gradient)"/>
              <g id="Group_4329" data-name="Group 4329" transform="translate(228.412)">
                <g id="Group_4328" data-name="Group 4328" transform="translate(13.063 9.808)">
                  <g id="Group_4327" data-name="Group 4327">
                    <path id="Path_7972" data-name="Path 7972" d="M297.771,154.668a24.61,24.61,0,0,1,6.476,12c2.071,9.125.122,18.78-2.527,27.574a13.855,13.855,0,0,1-1.9,4.288,15.259,15.259,0,0,1-2.362,2.384q-5.751,5-11.491,10.02c-2.592,2.269-18.551,4.157-21.6,1.981-11.738-8.387-14-32.691-11.647-45.115C256.625,147.192,283.129,139.824,297.771,154.668Z" transform="translate(-251.897 -146.854)" fill="#fec4ad"/>
                  </g>
                </g>
                <path id="Path_7973" data-name="Path 7973" d="M278.361,170.945c.156-1.984,2.2-4.156,4.245-2.869,2.121,1.333,1.622,4.857.743,6.8-.689,1.52-2.995,3.185-4.556,1.771-1.309-1.186.725-2.583.792-3.666.061-.974-1.888-1.672-1.09-2.714" transform="translate(-226.017 -126.947)" fill="#f7b094"/>
                <path id="Path_7974" data-name="Path 7974" d="M278.627,179.439c2.139.641,5.762-.989,6.68-3.967a22.8,22.8,0,0,0,.818-6.378,15.28,15.28,0,0,1,.523,7.033c-.554,4.338-2.075,8.47-5.481,8.525S278.627,179.439,278.627,179.439Z" transform="translate(-225.907 -126.266)" fill="#f7b094"/>
                <path id="Path_7975" data-name="Path 7975" d="M293.2,190.334a.753.753,0,0,1-.239.071c-1.325.186-1.854-1.416-2.05-2.419a44.6,44.6,0,0,1-.469-7.079,5.328,5.328,0,0,0-.214-1.892c-.746-1.7-2.727-2.811-3.333-4.57-.7-2.046,1.283-4.087.495-6.326-1.208-3.431-5.615-4.221-8.8-4.183a100.143,100.143,0,0,0-14.168,1.675c-4.984.772-11.353,1.507-15.746-1.644-5.293-3.8-7.5-13.692-3.553-19.11,2.154-2.953,6.236-4.525,9.814-4.607,3.791-.086,6.995,2.172,10.474,3.309,2.77.906,5.45-1.743,8.039-2.261,3.255-.65,4.638,2.9,7.518,3,2.8.1,5.541-2.089,8.262-2.585,5.422-.99,5.1,4.454,8.74,6.313,2.262,1.155,5.183.456,7.47,1.63,1.738.892,1.982,2.46,2.36,4.237a41.762,41.762,0,0,0,.851,4.767c.456,1.313,1.558,2.141,2.418,3.167a11.626,11.626,0,0,1,2.014,3.832,23.867,23.867,0,0,1,1,9.735c-.484,5.473-2.246,10.861-4.075,16.014-1.187,3.347-1.628,6.828-3.454,9.994-.49.851-2.668,3.336-3.477,1.485a2.712,2.712,0,0,1-.117-1.28c.241-3.448,3.454-25.667-4.967-23a5.966,5.966,0,0,0-3.613,3.707,14.434,14.434,0,0,0-.743,6.147c.015.3.022.607.01.91A1.037,1.037,0,0,1,293.2,190.334Z" transform="translate(-243.103 -140.248)" fill="#003145"/>
              </g>
              <path id="Path_7976" data-name="Path 7976" d="M269.531,194.569c9.575-1.538,15.893-9.1,15.893-9.1s-2.583,12.74-16.467,13.415Z" transform="translate(-2.141 -118.328)" fill="#f7b094"/>
              <g id="Group_4332" data-name="Group 4332" transform="translate(218.837 249.913)">
                <path id="Rectangle_2003" data-name="Rectangle 2003" d="M1.626,0H12.08a1.626,1.626,0,0,1,1.626,1.626V133.85a0,0,0,0,1,0,0H0a0,0,0,0,1,0,0V1.626A1.626,1.626,0,0,1,1.626,0Z" transform="translate(77.975 133.85) rotate(180)" fill="#003145"/>
                <path id="Rectangle_2004" data-name="Rectangle 2004" d="M6.314,0H69.06a6.314,6.314,0,0,1,6.314,6.314v5.117a0,0,0,0,1,0,0H0a0,0,0,0,1,0,0V6.314A6.314,6.314,0,0,1,6.314,0Z" transform="translate(108.809 13.31) rotate(180)" fill="#30475e"/>
                <g id="Group_4331" data-name="Group 4331" transform="translate(0 108.058)">
                  <path id="Rectangle_2005" data-name="Rectangle 2005" d="M1.626,0H12.08a1.626,1.626,0,0,1,1.626,1.626V32.872a0,0,0,0,1,0,0H0a0,0,0,0,1,0,0V1.626A1.626,1.626,0,0,1,1.626,0Z" transform="translate(77.975 43.08) rotate(180)" fill="#003145"/>
                  <path id="Path_7977" data-name="Path 7977" d="M236.657,407.583a8.021,8.021,0,1,0,8.021-8.018A8.019,8.019,0,0,0,236.657,407.583Z" transform="translate(-236.657 -372.52)" fill="#003145"/>
                  <path id="Path_7978" data-name="Path 7978" d="M321.617,407.583a8.021,8.021,0,1,0,8.021-8.018A8.018,8.018,0,0,0,321.617,407.583Z" transform="translate(-195.415 -372.52)" fill="#003145"/>
                  <rect id="Rectangle_2006" data-name="Rectangle 2006" width="27.573" height="24.083" transform="translate(84.908 24.083) rotate(180)" fill="#003145"/>
                  <path id="Rectangle_2007" data-name="Rectangle 2007" d="M0,0H142.244a0,0,0,0,1,0,0V5.581a5.751,5.751,0,0,1-5.751,5.751H5.751A5.751,5.751,0,0,1,0,5.582V0A0,0,0,0,1,0,0Z" transform="translate(142.244 29.749) rotate(180)" fill="#003145"/>
                </g>
                <rect id="Rectangle_2008" data-name="Rectangle 2008" width="4.754" height="89.898" transform="translate(66.368 16.011)" fill="#30475e"/>
              </g>
              <path id="Path_7979" data-name="Path 7979" d="M352.471,244.4a5.589,5.589,0,0,0-5.772,5.9c.942,16.317-2.519,56.123-17.724,69.705-18.591,16.605-71.285,14.342-71.285,14.342s-8.7,10.675,8.7,13.048,66.452.79,78.317-10.28c11.487-10.715,18.306-38.79,13.167-87.656a5.626,5.626,0,0,0-5.405-5.06Z" transform="translate(-8.666 -89.762)" fill="#949eb2"/>
              <path id="Path_7982" data-name="Path 7982" d="M211.9,382.393l1.5,21.454H192.44l-1.5-21.5Z" transform="translate(-40.012 -22.896)" fill="#fec4ad"/>
              <path id="Path_7980" data-name="Path 7980" d="M260.606,379.9l6.266,14.281-19.2,8.421-6.289-14.328Z" transform="translate(-15.526 -24.08)" fill="#fec4ad"/>
              <path id="Union_6" data-name="Union 6" d="M11.316,169.571S-6.6,53.09,2.656,37.151C16.9,12.643,104.3.381,104.3.381l.76-.33a1.525,1.525,0,0,0,.43.736C108.664.5,123.865.681,141.179.863c26.578.287,58.145.572,58.865-.863,0,0,8.307,35.181-15.049,41.516-23.328,6.312-90.564,18.173-96.5,22.915s23.73,93.109,23.73,93.109l-2.729,1.185L90.277,167.1l-5.742,2.512S47.13,91,45.045,58.168a27.8,27.8,0,0,1,.475-8.24,27.978,27.978,0,0,0-.48,8.24c-1.186.64-4.15,2.87-5.881,9.041-1.543,5.408,3.08,102.435,3.08,102.435Z" transform="translate(135.58 197.097)" fill="#003145" stroke="rgba(0,0,0,0)" stroke-miterlimit="10" stroke-width="1"/>
              <path id="Union_5" data-name="Union 5" d="M71.688,128.409c-27.918-10.249-53.75-7.112-55.73-8.73a1.414,1.414,0,0,1-.426-.734c-.643-1.753-1.045-6.146-1.215-12.242-.049-.994-.049-2.063-.07-3.153.285.021.6.049.9.07l1-5.292L69,78.272l-20.73-7.338c-2.7,5.048-5.605,8.844-8.475,9.6-4.344,1.136-14.834,3.1-25.416,4.959.121-5.669.307-11.647.549-17.65L0,53.924c6.078-11.768,18.092-36.86,19.063-38.886-1.211,2.842-2.883,24.692-3.912,47.7,1.047-23.411,2.762-45.621,3.982-47.829C21.268,10.94,27.1,2.333,36.311.357l.027.121s-3.182,18.786,15.8,18.786C70.223,19.264,72.527,1.685,72.7,0,82,1.05,96.258,5.7,98.234,24.391c.4,3.7.973,8.443,1.705,13.829l-5.863.8s-1.2,13.3-4.084,27.692c2.895-14.394,4.09-27.692,4.09-27.692l5.863-.8c3.918,29.605,17.775,91.67,10.166,107.481-.037.08-.125.119-.26.119C107.777,145.821,94.424,136.753,71.688,128.409ZM14.932,67.847c0-.1.008-.2.012-.295C14.939,67.652,14.936,67.748,14.932,67.847Zm.061-1.449v0Zm.041-.99c0-.066.006-.131.008-.2C15.039,65.276,15.035,65.345,15.033,65.409Zm.031-.722a.408.408,0,0,1,0-.049A.408.408,0,0,0,15.064,64.687Zm.061-1.411c.008-.139.014-.277.02-.416C15.139,63,15.133,63.137,15.125,63.275Zm4-48.37s-.018.045-.061.133C19.084,14.987,19.105,14.944,19.123,14.905Z" transform="translate(225.123 78.203)" fill="#f7ea48" stroke="rgba(0,0,0,0)" stroke-miterlimit="10" stroke-width="1"/>
              <path id="Path_7985" data-name="Path 7985" d="M328.56,254.6c-1.946,9.346-6.977,27.944-16.851,30.435-12.886,3.274-37.806,3.108-61.159,1.85-.048-1-.048-2.064-.071-3.155.285.024.594.048.9.071l1-5.29S314.716,315.286,325.4,250.8c2.208-14.066,4.912-31.6,4.912-31.6a2.05,2.05,0,0,0,.024.261C330.482,221.909,331.479,240.792,328.56,254.6Z" transform="translate(-11.11 -101.976)" fill="#fff" opacity="0.104"/>
              <path id="Union_2" data-name="Union 2" d="M24.9,21.707a3.709,3.709,0,0,1-1.857.816A27.152,27.152,0,0,1,12.755,20.6a2.5,2.5,0,0,1-1.6-2.706c-.139-.068-.277-.141-.418-.217C5.448,14.81,8.722,7.954,9,7.146,7.968,7.437,1.63,12.553.628,12.009S-1.1,9.664,6,2.667c7.07-7,16.707,1.987,16.99,1.987l8.854,6.026.283.238c.121-.158,8.914,5.775,17.881,11.7,8.932,5.909,18.041,11.815,18.932,11.711.453-.045,2.23-3.18,4.605-7.828L88.466,40.427c-.234,6-.426,11.981-.547,17.65-1.4.262-2.8.5-4.2.757C71.12,61.021,59.534,62.9,59.534,62.9l-.021.615C47.046,53.562,28.812,27.412,24.9,21.707Z" transform="translate(151.581 105.622)" fill="#fec4ad" stroke="rgba(0,0,0,0)" stroke-miterlimit="10" stroke-width="1"/>
              <path id="Union_3" data-name="Union 3" d="M37.982,32.149l-.014.615H0S3.771,14.948,14.047,14.948s14.24,5.427,14.24,5.427l9.992-.992,0-.006s11.58-1.872,24.182-4.053c1.4-.262,2.8-.5,4.2-.759,10.588-1.855,21.072-3.824,25.416-4.959,2.871-.757,5.77-4.555,8.477-9.607l37.189,13.164.143-.07c-2.807,8.537-6.365,15.465-10.822,17.578-4.068,1.913-20.922,2.464-38.895,2.464C64.336,33.135,38.531,32.171,37.982,32.149Zm.27-11.5.006-.25v-.074Z" transform="translate(172.837 149.135)" fill="#fec4ad" stroke="rgba(0,0,0,0)" stroke-miterlimit="10" stroke-width="1"/>
              <path id="Path_7991" data-name="Path 7991" d="M199.386,225.189c.408-1.406,4.318-.656,6.741-.6,1.785.043,2.763-.425,3.315-1.783s-2.041-3.526-2.55-2.846.934,1.636.977,2.537-2.551,1.2-4.547,1.2a48.65,48.65,0,0,0-5.444.52Z" transform="translate(-36.644 -101.672)" fill="#e8987c"/>
              <path id="Path_7993" data-name="Path 7993" d="M273.811,240.694,311,253.859l-1.684,4.967-36.808-15.782Z" transform="translate(-0.417 -91.559)" fill="#f7b094"/>
              <path id="Path_7995" data-name="Path 7995" d="M273.126,250.117l14.85-35.932-10.94,37.382Z" transform="translate(-1.116 -102.412)" fill="#fff" opacity="0.099"/>
              <path id="Path_8015" data-name="Path 8015" d="M.006,42.729,14.849,0,3.916,44.455Z" transform="translate(226.645 105.997) rotate(-18)" fill="#fff" opacity="0.099"/>
              <path id="Path_7996" data-name="Path 7996" d="M307.7,192.922h-8.094s-11.517,12.64-18.92,12.64-3.412-12.568-3.412-12.568h-3.611a20.413,20.413,0,0,0-20.282,18.091c-.134,1.18-.257,2.3-.362,3.312-.792,7.646,30.2,13.211,30.2,13.211l15.956-.892,9.689-18.9,1.931-7.738Z" transform="translate(-9.885 -114.716)" fill="#f7ea48"/>
              <g id="Group_4338" data-name="Group 4338" transform="translate(200.133 368.838)">
                <g id="Group_4337" data-name="Group 4337">
                  <g id="Group_4336" data-name="Group 4336">
                    <g id="Group_4335" data-name="Group 4335">
                      <path id="Path_7997" data-name="Path 7997" d="M224.092,409.883c.722,3.866,3.4,6.613,7.268,5.891l51.544-9.609a2.4,2.4,0,0,0,1.921-2.8l-.853-4.572s-54.211,9.483-59.907,11.061Z" transform="translate(-224.065 -383.761)" fill="#dcdfe5"/>
                      <path id="Path_7998" data-name="Path 7998" d="M239.427,401.819c.538-.466,1.055-.928,1.592-1.394,1.034-.925,2.051-1.826,3.03-2.7.517-.462,1.034-.925,1.514-1.358.942-.843,1.829-1.633,2.623-2.341.572-.517,1.105-1,1.585-1.437.881-.79,1.6-1.434,2.1-1.886a1.167,1.167,0,0,1,1.534-.031c2.118,1.78,8.968,5.851,21.372-1.82a1.19,1.19,0,0,1,1.687.439l7.5,14.409s-54.211,9.483-59.907,11.061C225.938,413.6,232.859,407.61,239.427,401.819Z" transform="translate(-224.065 -388.669)" fill="#003145"/>
                    </g>
                  </g>
                </g>
              </g>
              <g id="Group_4342" data-name="Group 4342" transform="translate(118.959 374.911)">
                <g id="Group_4341" data-name="Group 4341">
                  <g id="Group_4340" data-name="Group 4340">
                    <g id="Group_4339" data-name="Group 4339">
                      <path id="Path_7999" data-name="Path 7999" d="M169.439,406.384c.1,3.93,2.3,7.069,6.236,6.974l52.419-1.28a2.4,2.4,0,0,0,2.343-2.459l-.114-4.647s-55.031.728-60.9,1.379Z" transform="translate(-169.418 -386.839)" fill="#dcdfe5"/>
                      <path id="Path_8000" data-name="Path 8000" d="M186.646,401.939c.6-.374,1.19-.748,1.794-1.124,1.169-.748,2.316-1.474,3.422-2.18.584-.374,1.168-.748,1.71-1.1,1.064-.683,2.066-1.321,2.963-1.895.646-.419,1.251-.814,1.793-1.165,1-.64,1.809-1.161,2.38-1.526a1.164,1.164,0,0,1,1.518.212c1.809,2.095,7.922,7.205,21.39,1.606a1.191,1.191,0,0,1,1.6.7l5.108,15.422s-55.031.728-60.9,1.379C171.452,411.418,179.238,406.61,186.646,401.939Z" transform="translate(-169.418 -392.759)" fill="#003145"/>
                    </g>
                  </g>
                </g>
              </g>
              <path id="Path_8003" data-name="Path 8003" d="M128.369,256.914H228.712" transform="translate(-70.385 -83.697)" fill="none"/>
              <g id="Group_4349" data-name="Group 4349" transform="translate(0 181.283)">
                <g id="Group_4345" data-name="Group 4345" transform="translate(376.453 14.232)">
                  <rect id="Rectangle_2009" data-name="Rectangle 2009" width="12.679" height="208.21" fill="#c0c5d0"/>
                </g>
                <g id="Group_4346" data-name="Group 4346" transform="translate(307.628 14.232)" style="isolation: isolate">
                  <rect id="Rectangle_2010" data-name="Rectangle 2010" width="12.679" height="208.21" fill="#c0c5d0"/>
                </g>
                <g id="Group_4347" data-name="Group 4347" transform="translate(87.133 14.232)" style="isolation: isolate">
                  <rect id="Rectangle_2011" data-name="Rectangle 2011" width="12.679" height="208.21" fill="#c0c5d0"/>
                </g>
                <g id="Group_4348" data-name="Group 4348" transform="translate(18.309 14.232)" style="isolation: isolate">
                  <rect id="Rectangle_2012" data-name="Rectangle 2012" width="12.679" height="208.21" fill="#c0c5d0"/>
                </g>
                <rect id="Rectangle_2013" data-name="Rectangle 2013" width="407.984" height="15.024" rx="4.149" fill="#949eb2"/>
              </g>
              <path id="Path_8006" data-name="Path 8006" d="M241.26,229.238l-1.139,2.2,16.067,16.6v-4.873Z" transform="translate(-16.139 -97.112)" fill="#f7b094"/>
              <g id="Group_2658" data-name="Group 2658" transform="translate(42.889 95.551)">
                <path id="Path_5615" data-name="Path 5615" d="M644.275,641.8H540.811v-7.585H644.275a3.8,3.8,0,0,1,3.8,3.795h0A3.8,3.8,0,0,1,644.275,641.8Z" transform="translate(-488.772 -556.03)" fill="#003145"/>
                <path id="Path_5616" data-name="Path 5616" d="M658.044,705.128H558.271a9.73,9.73,0,0,1-9.4-7.232L531.259,631.58a9.729,9.729,0,0,1,9.4-12.221h87.125a9.73,9.73,0,0,1,9.4,7.231Z" transform="translate(-530.928 -619.359)" fill="#003145"/>
                <path id="Path_5617" data-name="Path 5617" d="M540.663,619.359a9.729,9.729,0,0,0-9.4,12.221L548.867,697.9a9.7,9.7,0,0,0,3.285,5.042L612.8,619.359Z" transform="translate(-530.928 -619.359)" opacity="0.5" fill="url(#linear-gradient)"/>
                <path id="Path_5618" data-name="Path 5618" d="M557.168,634.967c1.09,4.326-1.632,7.832-6.082,7.832a10.89,10.89,0,0,1-10.041-7.832c-1.1-4.326,1.632-7.831,6.082-7.831A10.9,10.9,0,0,1,557.168,634.967Z" transform="translate(-488.806 -586.209)" fill="#fff"/>
              </g>
            </g>
          </g>
          <g id="Group_4356" data-name="Group 4356" transform="translate(522.435 268.851)">
            <g id="Group_4355" data-name="Group 4355" transform="translate(0)">
              <path id="Path_8007" data-name="Path 8007" d="M404.118,355.849c-2.549,12.36-1.781,33.415-18.141,36.75-4.4.9-8.66-2.154-11.221-5.652-3.351-4.577-4.153-14.267-4.1-19.808.048-4.392,1.545-9.29,2.028-13.72.521-4.785.945-9.581,1.5-14.363,2.013-17.235,11.02-31.68,26.256-40.282,1.179,5.657,3.868,10.445,6.237,15.878a56.2,56.2,0,0,1,2.758,7.683c1.246,4.6-.261,9.24-1.379,13.642C406.411,342.483,405.475,349.266,404.118,355.849Z" transform="translate(-315.184 -275.421)" fill="#35c47d"/>
              <path id="Path_8008" data-name="Path 8008" d="M382.242,391c.116-1.036.245-2.073.382-3.109,1.955,0,3.99-1.115,5.631-1.966a29.908,29.908,0,0,0,7.388-5.848c.12-.12-.082-.316-.209-.209a33.288,33.288,0,0,1-7.2,4.922,20.251,20.251,0,0,1-5.466,2.034q.258-1.855.567-3.7c2.035-.249,3.9-1.586,5.624-2.607a64.281,64.281,0,0,0,8.06-6.151.03.03,0,0,0-.037-.046c-3.994,2.9-8.445,7.027-13.5,7.931.267-1.544.551-3.085.875-4.615.016-.08.034-.159.052-.239,5.848-1.479,9.8-6.064,14.282-9.769.073-.061-.006-.184-.082-.125-4.41,3.422-8.553,7.33-14,8.99.472-2.188.964-4.37,1.459-6.551a31.216,31.216,0,0,0,13.216-9.366c.062-.073-.04-.174-.107-.1-3.828,3.982-8.044,6.269-12.9,8.536.49-2.159.974-4.316,1.435-6.479,2.289-1.127,4.7-1.811,6.811-3.29a18.637,18.637,0,0,0,5.3-5.372.1.1,0,0,0-.175-.111c-2.962,4.254-7.426,5.578-11.739,7.816.42-2.016.812-4.04,1.163-6.074,4.808-2.646,10.031-5.1,12.755-10.169.027-.049-.043-.1-.074-.049-2.886,4.658-7.931,6.665-12.509,9.2.059-.362.125-.723.181-1.087.3-1.886.57-3.776.841-5.664a46.148,46.148,0,0,0,7.882-4.285c1.765-1.148,3.65-2.286,4.8-4.089a.1.1,0,0,0-.171-.12c-2.579,3.693-8.225,5.828-12.4,7.675q.406-2.862.811-5.725c4.627-2.8,10.073-4.347,12.92-9.391a.135.135,0,0,0-.229-.143c-2.949,4.607-8.142,6.028-12.565,8.643q.256-1.773.521-3.544c5-1.837,10.808-6.019,13.445-10.534a.224.224,0,0,0-.377-.24,28.05,28.05,0,0,1-12.92,9.836c.3-1.914.6-3.825.945-5.732a.5.5,0,0,0,.074-.168c2.244-.661,4.462-2.242,6.4-3.437a17.488,17.488,0,0,0,6.017-5.48c.16-.261-.266-.5-.416-.235-2.221,3.96-7.488,6.613-11.849,8.126.128-.695.254-1.391.392-2.086.2-1.039.417-2.077.63-3.115,1.785-1.232,4.052-1.822,5.845-3.124a33.07,33.07,0,0,0,4.254-3.875c.134-.138-.064-.349-.2-.217a28.147,28.147,0,0,1-5.873,4.509c-1.231.658-2.635,1.033-3.828,1.757.349-1.7.7-3.394,1.029-5.094.021,0,.042-.009.062-.013l.064.013a.319.319,0,0,0,.294-.091c2.427-.612,4.285-2.7,5.916-4.482a.045.045,0,0,0-.062-.064c-1.713,1.583-3.657,3.333-5.951,4.013a.162.162,0,0,0-.024-.01l-.175-.027q.4-2.076.75-4.157a.317.317,0,0,0,.287-.356,25.554,25.554,0,0,0,3.555-3.042.089.089,0,0,0-.122-.131,20.749,20.749,0,0,1-3.55,2.5,85.725,85.725,0,0,0,.966-8.665c.015-.27-.394-.273-.417-.007-.254,2.8-.663,5.58-1.144,8.343a25.775,25.775,0,0,1-3.648-5.575c-.043-.1-.208-.062-.172.051a15.9,15.9,0,0,0,1.775,3.451,20.983,20.983,0,0,0,1.881,3.032q-.405,2.225-.867,4.441a8.193,8.193,0,0,1-4.465-1.749,8.1,8.1,0,0,1-2.745-5.578c-.019-.267-.441-.266-.417,0a9.226,9.226,0,0,0,2.375,5.433,8.689,8.689,0,0,0,5.126,2.5q-.535,2.559-1.1,5.113a39.826,39.826,0,0,1-4.186-3.108c-2.151-1.713-3.421-3.776-5.288-5.7-.187-.193-.493.086-.308.282,1.75,1.859,2.932,3.872,4.924,5.544a28.367,28.367,0,0,0,4.724,3.6l-.059.27c-.019.016-.039.03-.056.047a.274.274,0,0,0-.039.382c-.359,1.63-.717,3.262-1.062,4.9-.022.1-.04.206-.061.309-3.806-1.742-9.492-4.767-10-9.18a.3.3,0,1,0-.579.128c1.126,4.993,6.618,7.205,10.4,9.928q-.559,2.773-1.028,5.562a22.524,22.524,0,0,1-6.858-3.531c-1.878-1.492-4.532-3.292-5.377-5.6-.027-.073-.134-.025-.11.047.783,2.3,3.165,3.875,4.9,5.443a18.327,18.327,0,0,0,7.279,4.473.5.5,0,0,0-.007.248q-.29,1.768-.561,3.54c-4.621-.355-11.087-3.863-13.449-7.357-.012-.016-.034,0-.024.018,1.61,2.665,4.046,4.224,6.791,5.577,2.05,1.01,4.266,2.2,6.586,2.377-.331,2.185-.652,4.374-.979,6.559-2.005-.747-4.129-1.1-6.113-1.9a15.134,15.134,0,0,1-6.94-5.9c-.1-.157-.367-.025-.263.139,3.2,5.084,7.8,6.574,13.194,8.479q-.406,2.69-.847,5.376c-4.412-.846-10.12-3.538-12.351-7.369-.165-.281-.612-.048-.449.236,1.411,2.456,3.84,4.007,6.319,5.259,1.786.9,4.244,2.395,6.371,2.555-.01.058-.019.117-.03.175-.435,2.578-.945,5.14-1.5,7.694-4.929-1.238-8.115-4.889-11.7-8.306-.25-.238-.639.126-.391.368,3.65,3.592,6.855,7.358,11.926,8.686q-.682,3.118-1.441,6.219a22.774,22.774,0,0,1-11.069-7.572c-.193-.242-.53.086-.348.328a24.514,24.514,0,0,0,11.224,8.047q-.818,3.327-1.679,6.646c-4.314-.656-7.637-3.355-10.293-6.766-.062-.08-.2.024-.141.107,2.359,3.281,5.93,7.072,10.224,7.468q-.274,1.06-.547,2.119c-.11.426-.226.858-.343,1.293a24.474,24.474,0,0,1-8.954-4.315c-.076-.061-.162.055-.091.119a23.349,23.349,0,0,0,8.868,4.846c-.362,1.329-.744,2.695-1.122,4.087a18.208,18.208,0,0,0-2.47-1.051c-1.618-.485-2.665-1.51-4.073-2.356-.129-.077-.275.105-.146.19,1.236.806,2.1,1.844,3.516,2.376,1.044.393,2.029.894,3.038,1.342-1.482,5.523-2.793,11.392-2.081,16.694.157,1.176,2.13,1.488,2.435.236C381.853,399.036,381.8,394.931,382.242,391Z" transform="translate(-314.219 -273.409)" fill="#00839a"/>
              <path id="Path_8009" data-name="Path 8009" d="M370.471,351.218c2.91,12.282,12.5,31.046-.927,40.97-3.616,2.673-8.761,1.7-12.561-.389-4.97-2.736-9.789-11.182-12.075-16.23-1.814-4-2.522-9.075-3.956-13.294-1.549-4.558-3.189-9.085-4.7-13.655-5.453-16.475-3.385-33.369,6.794-47.6,3.458,4.631,7.917,7.838,12.359,11.764a56.2,56.2,0,0,1,5.746,5.8c3.07,3.642,3.665,8.488,4.51,12.95C366.908,338.135,368.923,344.68,370.471,351.218Z" transform="translate(-333.312 -274.33)" fill="#35c47d"/>
              <path id="Path_8010" data-name="Path 8010" d="M366.325,391.606q-.5-1.485-.967-2.981c1.771-.829,3.146-2.693,4.275-4.157a29.927,29.927,0,0,0,4.229-8.42c.056-.159-.208-.251-.278-.1a33.307,33.307,0,0,1-4.446,7.5,20.217,20.217,0,0,1-4.1,4.148q-.55-1.791-1.052-3.6c1.741-1.084,2.867-3.082,4-4.735a64.39,64.39,0,0,0,4.71-8.977.03.03,0,0,0-.053-.028c-2.4,4.315-4.689,9.934-8.887,12.886-.41-1.513-.8-3.029-1.156-4.552-.019-.08-.036-.159-.053-.239,4.676-3.808,6.328-9.633,8.822-14.881.04-.086-.082-.165-.126-.079-2.553,4.964-4.66,10.254-8.9,14.059-.495-2.184-.971-4.37-1.444-6.555a31.167,31.167,0,0,0,8.027-14.066.075.075,0,0,0-.141-.049c-1.788,5.225-4.645,9.076-8.088,13.178-.468-2.162-.939-4.323-1.436-6.479,1.6-1.985,3.494-3.621,4.786-5.854a18.6,18.6,0,0,0,2.537-7.106.1.1,0,0,0-.206-.027c-.888,5.1-4.376,8.188-7.342,12.037q-.7-3.009-1.509-6c3.241-4.427,6.941-8.853,7.27-14.6,0-.056-.082-.073-.089-.013-.649,5.44-4.375,9.387-7.455,13.618-.1-.353-.192-.708-.293-1.062q-.8-2.753-1.631-5.489a46.13,46.13,0,0,0,5.337-7.21c1.114-1.785,2.343-3.614,2.628-5.734a.1.1,0,0,0-.205-.037c-.78,4.436-5,8.753-8,12.188q-.84-2.768-1.683-5.532c3.014-4.491,7.3-8.191,7.748-13.965a.135.135,0,0,0-.267-.033c-.728,5.421-4.835,8.9-7.741,13.137q-.519-1.717-1.025-3.434c3.755-3.773,7.258-10.016,7.741-15.221a.224.224,0,0,0-.444-.059,28.016,28.016,0,0,1-7.559,14.368c-.539-1.859-1.067-3.722-1.563-5.594a.547.547,0,0,0,0-.184c1.756-1.546,3.1-3.915,4.349-5.814a17.492,17.492,0,0,0,3.142-7.507.239.239,0,0,0-.477-.039c-.34,4.527-4,9.155-7.311,12.366-.177-.685-.357-1.369-.526-2.056q-.377-1.543-.743-3.09c1.1-1.871,2.9-3.361,3.979-5.3a32.921,32.921,0,0,0,2.221-5.309.149.149,0,0,0-.276-.11,28.027,28.027,0,0,1-3.421,6.564c-.838,1.118-1.952,2.05-2.727,3.208-.4-1.685-.8-3.37-1.218-5.051.018-.012.033-.027.051-.04l.064-.015a.315.315,0,0,0,.227-.206c1.943-1.578,2.745-4.257,3.471-6.56a.044.044,0,0,0-.083-.031c-.885,2.157-1.909,4.566-3.7,6.148a.149.149,0,0,1-.027,0l-.169.049q-.515-2.049-1.075-4.085a.318.318,0,0,0,.11-.444,25.369,25.369,0,0,0,1.937-4.257.089.089,0,0,0-.165-.068,20.714,20.714,0,0,1-2.161,3.768,85.808,85.808,0,0,0-2.784-8.263c-.1-.251-.471-.082-.382.169.954,2.649,1.757,5.338,2.487,8.046a25.8,25.8,0,0,1-5.662-3.514c-.082-.077-.214.031-.134.117a15.968,15.968,0,0,0,3.066,2.38,21.189,21.189,0,0,0,2.984,1.955c.383,1.458.743,2.922,1.09,4.39a8.2,8.2,0,0,1-4.787.3,8.1,8.1,0,0,1-4.844-3.9c-.131-.233-.512-.053-.377.178a9.243,9.243,0,0,0,4.447,3.924,8.7,8.7,0,0,0,5.7.1q.595,2.546,1.162,5.1a39.928,39.928,0,0,1-5.107-1.05c-2.674-.647-4.7-1.981-7.2-2.941a.208.208,0,0,0-.16.385c2.372.949,4.294,2.275,6.806,2.949a28.274,28.274,0,0,0,5.8,1.271l.059.269c-.009.024-.022.045-.031.068a.273.273,0,0,0,.128.361c.362,1.632.726,3.262,1.105,4.889.022.1.05.2.074.3-4.184.027-10.618-.316-12.938-4.1-.221-.361-.74.009-.471.358,3.128,4.052,9.042,3.741,13.62,4.615q.666,2.75,1.416,5.476a22.54,22.54,0,0,1-7.708-.307c-2.332-.561-5.5-1.073-7.24-2.812-.055-.053-.132.034-.08.089,1.68,1.753,4.507,2.18,6.739,2.868a18.317,18.317,0,0,0,8.486.986.515.515,0,0,0,.1.229q.483,1.724.985,3.445c-4.339,1.629-11.681,1.176-15.3-.995-.016-.01-.03.015-.013.025,2.585,1.737,5.451,2.123,8.51,2.191,2.286.051,4.8.2,6.975-.624.622,2.12,1.255,4.239,1.884,6.359-2.133.169-4.21.741-6.344.858a15.146,15.146,0,0,1-8.785-2.428c-.16-.1-.343.132-.18.238,5.048,3.259,9.85,2.671,15.542,2.122q.769,2.61,1.5,5.231c-4.358,1.1-10.668,1.063-14.311-1.468-.267-.186-.575.215-.306.4,2.316,1.63,5.174,2.012,7.949,2.1,2,.064,4.859.382,6.855-.371.015.056.033.114.047.172.692,2.52,1.313,5.057,1.892,7.6-4.991.958-9.422-1.008-14.111-2.594-.327-.11-.526.383-.2.5,4.825,1.715,9.323,3.779,14.48,2.842q.7,3.116,1.321,6.246a22.8,22.8,0,0,1-13.234-2.195c-.276-.139-.444.3-.177.443a24.5,24.5,0,0,0,13.572,2.561c.444,2.242.867,4.488,1.285,6.733-4.187,1.225-8.339.18-12.188-1.792-.089-.046-.171.107-.083.157,3.525,1.979,8.363,3.909,12.424,2.457q.2,1.076.4,2.151c.08.432.159.873.236,1.317a24.509,24.509,0,0,1-9.94-.134c-.094-.024-.122.117-.031.146a23.343,23.343,0,0,0,10.086.652c.232,1.358.462,2.757.709,4.18a17.9,17.9,0,0,0-2.683.089c-1.671.242-3.054-.245-4.688-.417-.15-.016-.2.211-.05.233,1.46.209,2.686.784,4.189.67,1.113-.085,2.218-.045,3.321-.065.988,5.633,2.277,11.508,5.162,16.014.639,1,2.559.448,2.308-.814C369.364,399.054,367.586,395.351,366.325,391.606Z" transform="translate(-332.428 -272.201)" fill="#00839a"/>
              <path id="Path_8011" data-name="Path 8011" d="M391.026,350.415c.691,15.6,8,40.633-10.619,49.592-5.013,2.413-11.044.04-15.178-3.381-5.41-4.476-9.311-15.858-10.921-22.525-1.277-5.284-.966-11.615-1.73-17.076-.826-5.9-1.772-11.783-2.553-17.691-2.812-21.288,3.614-41.35,19.285-56.289,3.131,6.43,7.809,11.361,12.3,17.16a69.6,69.6,0,0,1,5.642,8.383c2.889,5.137,2.49,11.167,2.482,16.786C389.723,333.685,390.658,342.106,391.026,350.415Z" transform="translate(-325.512 -283.045)" fill="#35c47d"/>
              <path id="Path_8012" data-name="Path 8012" d="M376.031,398.71q-.263-1.918-.486-3.847c2.344-.6,4.449-2.548,6.159-4.064a37.072,37.072,0,0,0,7.093-9.257c.107-.181-.195-.353-.315-.187a41.217,41.217,0,0,1-7.14,8.086c-1.566,1.275-3.819,3.283-5.942,4.1q-.254-2.307-.443-4.618c2.366-.916,4.2-3.084,5.955-4.833a79.771,79.771,0,0,0,7.806-9.821.037.037,0,0,0-.058-.046c-3.914,4.69-8,10.991-13.791,13.608-.149-1.933-.275-3.868-.351-5.8,0-.1-.006-.2-.01-.3,6.569-3.547,9.926-10.248,14.174-16.051.068-.093-.062-.218-.137-.125-4.253,5.444-8.039,11.388-14.076,15.031-.1-2.769-.169-5.537-.236-8.3a38.6,38.6,0,0,0,13.015-15.244.092.092,0,0,0-.159-.092c-3.385,5.939-7.749,9.96-12.886,14.149-.067-2.736-.14-5.473-.245-8.209,2.406-2.043,5.088-3.595,7.175-6.01a23.049,23.049,0,0,0,4.73-8.052.129.129,0,0,0-.245-.082c-2.261,6-7.216,8.944-11.713,12.936-.109-2.548-.251-5.094-.447-7.64,4.966-4.632,10.49-9.156,12.219-16.066.018-.068-.082-.107-.1-.037-2.05,6.463-7.494,10.4-12.219,14.831-.037-.453-.067-.906-.11-1.36-.218-2.352-.461-4.7-.71-7.051a56.953,56.953,0,0,0,8.158-7.529c1.768-1.912,3.684-3.85,4.523-6.362a.13.13,0,0,0-.242-.092c-1.974,5.211-8.1,9.484-12.544,12.965q-.381-3.557-.764-7.115c4.7-4.76,10.766-8.267,12.653-15.184a.166.166,0,0,0-.316-.1c-2.142,6.42-7.941,9.7-12.455,14.176q-.232-2.2-.449-4.411c5.438-3.716,11.142-10.5,12.935-16.712a.277.277,0,0,0-.526-.175c-2.023,5.568-7.2,12.371-12.518,15.717-.226-2.384-.435-4.772-.606-7.162a.656.656,0,0,0,.039-.226c2.493-1.473,4.673-4.043,6.635-6.062a21.647,21.647,0,0,0,5.557-8.4.3.3,0,0,0-.57-.156c-1.462,5.424-6.978,10.2-11.753,13.34-.056-.873-.117-1.746-.162-2.621q-.1-1.964-.189-3.929c1.769-2.019,4.309-3.415,6.065-5.52a40.911,40.911,0,0,0,3.93-5.939.185.185,0,0,0-.312-.2,34.765,34.765,0,0,1-5.677,7.189c-1.277,1.163-2.849,2.04-4.061,3.268-.1-2.142-.193-4.283-.31-6.423.025-.012.048-.025.071-.036l.082,0a.388.388,0,0,0,.324-.2c2.727-1.47,4.323-4.54,5.74-7.171a.055.055,0,0,0-.094-.058c-1.576,2.419-3.378,5.109-5.922,6.619-.012,0-.021,0-.033,0l-.218.021q-.149-2.612-.361-5.216a.392.392,0,0,0,.238-.514,31.637,31.637,0,0,0,3.341-4.727.111.111,0,0,0-.186-.12,25.743,25.743,0,0,1-3.5,4.082,106.277,106.277,0,0,0-1.471-10.69c-.064-.328-.554-.208-.5.119.547,3.44.9,6.9,1.159,10.356a31.925,31.925,0,0,1-6.068-5.584c-.083-.111-.269-.01-.192.113a19.739,19.739,0,0,0,3.176,3.6,26.265,26.265,0,0,0,3.176,3.069c.128,1.86.226,3.725.308,5.59a10.143,10.143,0,0,1-5.888-.744,10.025,10.025,0,0,1-4.985-5.863c-.105-.313-.612-.184-.5.129a11.424,11.424,0,0,0,4.5,5.8c2.228,1.462,4.433,1.552,6.909,1.445q.134,3.232.23,6.467a49.056,49.056,0,0,1-5.964-2.459c-3.1-1.4-5.251-3.494-8.076-5.243-.284-.175-.566.252-.285.432,2.665,1.7,4.694,3.758,7.591,5.159a34.981,34.981,0,0,0,6.759,2.886l.012.341c-.018.027-.037.049-.053.076a.34.34,0,0,0,.07.469c.064,2.065.128,4.132.211,6.2.006.129.015.258.021.387-5.094-.935-12.836-2.842-14.778-7.983a.367.367,0,1,0-.655.327c2.865,5.651,10.125,6.641,15.49,8.763q.169,3.5.452,6.984a27.859,27.859,0,0,1-9.3-2.159c-2.7-1.22-6.436-2.576-8.151-5.093-.055-.079-.169.01-.117.089,1.635,2.52,4.972,3.693,7.527,5.048,3.243,1.719,6.454,3.064,10.089,3.162a.624.624,0,0,0,.067.3q.187,2.207.4,4.416c-5.654.974-14.475-1.274-18.369-4.751-.018-.016-.04.012-.024.028,2.742,2.711,6.138,3.843,9.841,4.632,2.767.591,5.787,1.353,8.624.857.264,2.723.544,5.446.815,8.167-2.632-.288-5.29-.074-7.911-.426a18.723,18.723,0,0,1-10.116-4.983c-.174-.156-.449.082-.275.248,5.382,5.13,11.356,5.525,18.4,6.175q.33,3.352.615,6.708c-5.551.322-13.216-1.177-17.056-5.1-.282-.287-.749.129-.466.42,2.438,2.518,5.824,3.643,9.177,4.393,2.415.54,5.818,1.589,8.418,1.136.007.073.013.147.019.22.258,3.223.425,6.453.539,9.683-6.291.009-11.221-3.406-16.555-6.418-.371-.209-.728.343-.358.56,5.469,3.2,10.459,6.751,16.946,6.808q.127,3.946.157,7.9a28.2,28.2,0,0,1-15.579-5.731c-.3-.233-.609.264-.316.5a30.331,30.331,0,0,0,15.907,6.255c.019,2.827.015,5.655,0,8.482-5.374.52-10.18-1.712-14.4-5-.1-.077-.235.091-.138.171,3.826,3.223,9.26,6.689,14.535,5.863q-.007,1.354-.015,2.708,0,.817-.018,1.655a30.339,30.339,0,0,1-12.054-2.463c-.108-.052-.175.114-.071.169a28.913,28.913,0,0,0,12.111,3.127c-.033,1.7-.077,3.459-.107,5.244a22.463,22.463,0,0,0-3.283-.512c-2.087-.092-3.656-1-5.6-1.592-.178-.055-.3.209-.116.272,1.726.591,3.084,1.574,4.938,1.783,1.374.156,2.706.459,4.052.69-.1,7.076.1,14.516,2.567,20.662.545,1.363,3.008,1.139,2.995-.454C378,408.468,376.7,403.555,376.031,398.71Z" transform="translate(-324.332 -280.409)" fill="#00839a"/>
              <path id="Path_8013" data-name="Path 8013" d="M401.01,366.66l-.689,12.684-1.078,19.751-1.768,32.453H353.518l-1.768-32.453-1.078-19.751-.689-12.684Z" transform="translate(-325.22 -242.514)" fill="#003145"/>
              <path id="Path_8014" data-name="Path 8014" d="M400.1,375.2l-.141,2.544-.141,2.632-.8,14.575H351.526l-.8-14.575-.141-2.632-.141-2.544Z" transform="translate(-324.994 -238.373)" fill="#fff" opacity="0.104"/>
            </g>
          </g>
        </g>
      </g>
    </g>
  </g>
</svg>
